<?xml version="1.0" standalone="no"?>
<!DOCTYPE svg PUBLIC "-//W3C//DTD SVG 20010904//EN"
 "http://www.w3.org/TR/2001/REC-SVG-20010904/DTD/svg10.dtd">
<svg version="1.0" xmlns="http://www.w3.org/2000/svg"
 width="512.000000pt" height="512.000000pt" viewBox="0 0 512.000000 512.000000"
 preserveAspectRatio="xMidYMid meet">
<metadata>
Created by potrace 1.14, written by Peter Selinger 2001-2017
</metadata>
<g transform="translate(0.000000,512.000000) scale(0.100000,-0.100000)"
fill="#000000" stroke="none">
<path d="M2752 5094 c-18 -13 -21 -19 -11 -30 11 -13 6 -18 -14 -15 -4 1 -15
-5 -23 -13 -12 -13 -12 -15 6 -21 17 -6 18 -8 6 -21 -20 -20 -31 -18 -15 4 12
14 10 14 -8 -2 -12 -10 -21 -23 -20 -30 1 -6 -5 -10 -13 -8 -9 1 -5 -7 10 -20
16 -14 19 -19 8 -15 -10 4 -19 2 -19 -3 -1 -6 -2 -15 -3 -21 0 -5 -12 -19 -26
-30 -14 -12 -20 -18 -13 -15 6 4 15 1 19 -5 4 -7 3 -9 -2 -6 -6 3 -16 2 -24
-4 -12 -7 -12 -9 3 -9 10 0 15 -5 12 -10 -4 -6 -10 -8 -15 -5 -4 3 -14 -3 -21
-13 -13 -15 -12 -16 4 -3 10 8 17 9 17 3 0 -6 -5 -14 -10 -17 -6 -4 -8 -10 -5
-15 3 -5 1 -11 -5 -15 -6 -4 -8 -10 -5 -15 3 -4 -2 -11 -11 -14 -15 -6 -15 -4
-1 18 14 20 14 25 2 30 -9 3 -12 0 -8 -10 3 -7 1 -14 -5 -14 -6 0 -9 -11 -7
-25 1 -16 -3 -25 -11 -25 -8 0 -15 -6 -15 -12 -1 -7 -2 -17 -4 -23 -1 -5 -3
-16 -3 -23 -1 -7 -7 -10 -14 -6 -8 5 -9 0 -6 -14 4 -14 2 -20 -5 -15 -6 4 -8
-2 -5 -15 4 -12 1 -25 -4 -29 -7 -4 -8 -1 -3 8 6 10 5 11 -3 4 -23 -21 -89
-164 -78 -169 7 -3 6 -5 -1 -5 -7 -1 -20 -15 -29 -32 -11 -23 -12 -29 -2 -23
16 10 -9 -25 -32 -43 -13 -11 -13 -14 0 -23 13 -8 12 -10 -4 -10 -11 0 -16 -5
-13 -14 3 -7 -5 -23 -19 -35 -15 -13 -21 -26 -17 -37 5 -13 2 -16 -9 -12 -15
6 -17 1 -21 -46 -1 -18 -5 -22 -15 -14 -9 8 -11 7 -6 -7 5 -11 3 -16 -2 -12
-6 3 -11 -3 -11 -14 -2 -18 0 -19 14 -7 14 11 15 11 9 0 -4 -7 -18 -17 -30
-22 -13 -4 -23 -15 -23 -24 0 -8 3 -13 7 -11 4 2 7 -2 7 -10 0 -8 -3 -14 -6
-13 -20 2 -29 -4 -34 -22 -3 -11 -1 -18 3 -15 5 3 12 0 16 -7 4 -7 4 -10 -1
-6 -12 11 -42 -9 -48 -32 -3 -11 0 -20 5 -20 7 0 6 -5 -1 -13 -6 -8 -7 -18 -3
-22 4 -5 1 -5 -6 -1 -7 4 -9 12 -6 18 5 7 2 8 -5 3 -7 -4 -11 -18 -8 -31 2
-14 0 -27 -6 -31 -6 -4 -7 -1 -2 8 6 10 5 11 -4 3 -7 -6 -13 -21 -14 -33 -1
-11 -5 -21 -10 -21 -5 0 -4 -7 3 -15 11 -13 10 -14 -5 -9 -13 5 -16 4 -11 -4
4 -7 2 -12 -4 -12 -7 0 -9 -7 -6 -16 3 -8 2 -13 -3 -10 -12 8 -34 -21 -26 -34
3 -5 2 -10 -4 -10 -6 0 -8 -6 -5 -14 3 -8 0 -17 -7 -22 -8 -5 -10 -3 -4 7 5 8
4 11 0 6 -5 -4 -10 -17 -12 -29 -2 -12 -8 -27 -14 -34 -7 -8 -6 -14 3 -17 8
-4 7 -6 -4 -6 -10 -1 -18 -8 -18 -16 0 -8 -5 -15 -11 -15 -5 0 -7 -5 -4 -10 4
-6 12 -7 18 -3 7 4 6 0 -2 -10 -15 -18 -26 -23 -16 -7 3 6 1 10 -4 10 -6 0
-11 -7 -11 -15 0 -8 -4 -15 -10 -15 -5 0 -10 -5 -10 -11 0 -5 4 -8 8 -5 5 3 9
-1 9 -9 0 -8 -4 -12 -9 -9 -4 3 -8 0 -8 -6 0 -6 -5 -8 -12 -4 -7 5 -9 2 -5 -9
3 -9 -1 -18 -11 -22 -16 -6 -16 -7 1 -20 12 -8 14 -15 8 -20 -6 -3 -11 -1 -11
5 0 6 -4 9 -10 5 -5 -3 -7 -12 -3 -20 4 -11 1 -13 -12 -9 -15 6 -16 4 -5 -17
13 -23 12 -23 -5 -9 -17 13 -18 13 -13 -2 5 -11 2 -15 -10 -14 -9 2 -27 -3
-39 -11 -21 -14 -39 -18 -120 -27 -18 -1 -39 -9 -48 -16 -8 -7 -22 -9 -31 -6
-11 4 -15 2 -11 -8 5 -12 1 -13 -17 -6 -17 6 -28 4 -41 -8 -10 -9 -15 -12 -11
-5 4 8 -1 11 -16 8 -13 -3 -24 -9 -26 -14 -2 -6 -10 -7 -18 -4 -8 3 -14 -1
-14 -8 0 -10 -3 -10 -11 -2 -8 8 -19 9 -38 1 -42 -16 -123 -36 -169 -41 -24
-3 -49 -10 -56 -16 -7 -6 -15 -8 -19 -5 -3 3 -21 1 -40 -5 -20 -7 -52 -14 -74
-16 -96 -11 -130 -16 -158 -25 -16 -5 -50 -11 -75 -15 -25 -3 -62 -9 -82 -14
-20 -5 -39 -6 -42 -3 -4 3 -6 -1 -6 -8 0 -7 -2 -11 -6 -8 -3 3 -28 -3 -55 -13
-28 -11 -54 -17 -60 -14 -5 4 -9 3 -9 -2 0 -4 -15 -8 -32 -9 -35 0 -61 -6
-118 -24 -19 -6 -46 -13 -60 -16 -14 -3 -41 -9 -60 -14 -19 -5 -52 -10 -73
-12 -28 -1 -36 -6 -32 -16 4 -12 3 -12 -9 -3 -10 8 -16 9 -21 1 -3 -6 -12 -7
-18 -3 -7 4 -5 -2 3 -12 11 -14 11 -17 1 -11 -8 5 -17 3 -23 -5 -8 -11 -9 -10
-4 4 5 15 3 16 -14 7 -11 -6 -20 -18 -20 -28 0 -15 -2 -15 -10 -2 -8 12 -10
11 -10 -7 0 -13 -4 -23 -8 -23 -5 0 -9 -7 -9 -15 0 -8 4 -12 9 -9 5 4 8 -2 6
-12 -2 -13 4 -20 20 -22 12 -2 20 -8 17 -13 -5 -8 16 -14 37 -10 5 0 7 -4 5
-11 -1 -7 5 -12 13 -13 8 0 33 -8 54 -18 22 -10 46 -15 53 -12 8 2 11 0 8 -5
-7 -11 39 -24 59 -17 11 4 13 1 9 -10 -5 -12 -2 -15 10 -10 9 3 17 2 17 -4 0
-5 6 -9 12 -8 13 2 53 -6 98 -21 160 -51 257 -72 264 -56 2 6 5 3 5 -8 1 -13
6 -17 21 -13 11 3 18 2 15 -3 -3 -4 3 -10 13 -14 9 -3 35 -12 57 -20 28 -11
43 -12 52 -4 7 6 14 8 14 4 1 -3 3 -10 4 -16 1 -5 3 -13 4 -17 0 -4 6 -2 12 4
9 9 19 4 41 -19 22 -24 31 -28 42 -19 12 10 17 8 26 -8 6 -12 17 -21 25 -21 8
0 15 -4 15 -10 0 -5 8 -10 18 -10 10 0 26 -6 37 -14 11 -7 30 -12 42 -11 13 1
19 -3 16 -8 -4 -6 0 -8 10 -4 10 3 17 2 17 -4 0 -6 4 -8 9 -5 5 4 11 1 13 -4
2 -6 19 -13 38 -16 19 -3 41 -10 47 -16 7 -6 20 -8 28 -4 9 3 13 2 10 -4 -7
-11 35 -31 48 -23 4 2 7 0 7 -6 0 -5 11 -8 25 -7 13 2 22 0 20 -4 -5 -8 31
-29 62 -35 12 -2 30 -8 40 -13 10 -5 31 -8 48 -6 18 2 25 0 17 -5 -18 -11 113
-55 155 -52 25 1 33 -3 39 -21 10 -32 11 -68 2 -68 -4 0 -8 -9 -8 -21 0 -12
-4 -17 -11 -14 -6 4 -9 1 -8 -6 4 -22 -11 -60 -22 -53 -5 3 -9 2 -8 -3 1 -4 0
-11 -1 -15 -5 -16 -8 -28 -9 -44 0 -8 -5 -12 -11 -9 -6 4 -7 -1 -3 -11 5 -13
3 -15 -8 -10 -8 4 -5 0 5 -8 19 -15 19 -16 2 -16 -14 0 -17 -5 -13 -21 4 -15
0 -23 -14 -26 -10 -3 -16 -9 -14 -14 3 -4 13 -5 22 -2 11 4 14 3 9 -5 -4 -7
-14 -12 -23 -12 -12 0 -13 -3 -4 -14 8 -10 9 -16 1 -21 -6 -3 -7 -11 -4 -17 4
-7 2 -8 -4 -4 -7 4 -12 2 -12 -5 0 -8 -5 -8 -17 2 -15 11 -14 10 1 -9 17 -20
15 -27 -7 -23 -5 1 -6 -3 -2 -8 3 -6 13 -8 23 -5 9 2 7 -1 -5 -7 -17 -9 -21
-19 -19 -44 3 -27 1 -32 -13 -28 -9 4 -13 3 -9 -2 4 -4 3 -14 -4 -22 -9 -11
-7 -12 8 -7 18 5 18 5 1 -6 -9 -6 -15 -16 -11 -21 3 -6 -2 -9 -12 -7 -15 2
-19 -4 -18 -37 0 -22 -6 -44 -13 -48 -7 -4 -13 -13 -13 -20 0 -7 4 -6 10 3 8
12 10 10 10 -8 0 -15 -4 -21 -12 -16 -8 5 -9 2 -5 -9 4 -12 1 -17 -11 -17 -10
0 -13 -3 -7 -8 12 -8 14 -31 3 -34 -3 -2 -10 1 -15 6 -5 5 -2 6 6 1 10 -5 12
-4 7 4 -10 16 -25 5 -21 -17 1 -9 9 -16 19 -14 25 4 19 -7 -10 -18 -14 -6 -22
-14 -19 -20 3 -5 1 -10 -6 -10 -7 0 -9 -3 -6 -7 4 -3 1 -13 -6 -21 -9 -13 -9
-14 1 -8 6 4 12 3 12 -2 0 -6 -8 -13 -17 -16 -10 -4 -13 -10 -8 -14 6 -4 11
-13 13 -21 3 -12 1 -12 -14 0 -16 13 -16 12 -5 -8 10 -20 9 -22 -6 -16 -16 6
-17 5 -3 -12 12 -15 12 -17 1 -10 -11 6 -13 4 -8 -8 3 -9 -1 -18 -10 -21 -12
-5 -13 -9 -3 -22 11 -12 11 -17 0 -27 -9 -9 -11 -9 -6 0 3 6 2 14 -3 17 -11 7
-9 -13 3 -33 6 -9 5 -12 -2 -7 -6 3 -13 2 -17 -4 -3 -5 0 -10 7 -10 10 0 10
-2 -1 -9 -8 -5 -11 -16 -8 -24 4 -11 1 -14 -9 -10 -7 3 -14 0 -14 -6 0 -6 5
-11 10 -11 6 0 10 -5 10 -11 0 -6 -7 -9 -14 -6 -10 4 -13 1 -9 -9 3 -7 0 -14
-5 -14 -6 0 -9 -14 -7 -30 3 -19 0 -28 -6 -25 -6 4 -8 -4 -5 -19 3 -15 1 -24
-5 -21 -5 4 -9 -3 -9 -15 0 -12 -5 -18 -10 -15 -17 11 -11 -7 7 -21 17 -13 17
-14 -1 -7 -13 4 -17 3 -12 -5 4 -7 2 -12 -5 -12 -7 0 -9 -3 -6 -6 4 -4 -3 -15
-15 -25 -20 -18 -13 -28 8 -12 5 5 1 0 -9 -9 -14 -13 -15 -18 -6 -18 10 0 10
-3 3 -8 -6 -4 -10 -20 -10 -35 1 -16 -1 -30 -5 -33 -4 -2 -3 -19 1 -38 5 -22
3 -39 -4 -47 -6 -6 -6 -9 -1 -6 10 5 13 -59 3 -69 -3 -3 -2 -21 2 -40 8 -32 5
-38 -13 -35 -5 1 -6 -3 -2 -9 3 -6 9 -8 13 -6 4 2 6 -12 5 -32 -1 -21 -2 -37
-3 -37 -1 0 -2 -14 -3 -32 -1 -17 1 -29 6 -26 6 4 12 -27 8 -49 0 -4 6 -5 14
-2 8 4 15 1 15 -5 0 -25 39 -7 95 44 33 30 92 78 132 107 40 29 72 58 72 65 1
7 8 10 16 7 8 -4 15 -2 15 4 0 5 24 25 52 43 49 32 68 49 140 125 15 16 47 48
70 71 74 71 152 156 193 208 21 28 46 57 54 65 9 8 40 44 70 79 29 35 59 71
67 78 8 8 14 19 14 24 0 6 5 7 12 3 8 -5 9 -2 5 10 -4 9 -3 15 2 12 4 -3 32
22 62 56 30 34 74 83 99 108 25 25 66 70 92 99 42 47 51 52 75 46 16 -4 34 -8
40 -9 7 -1 19 -10 27 -21 8 -12 20 -16 35 -12 11 3 18 1 15 -4 -3 -5 2 -12 10
-15 9 -3 13 -11 10 -16 -4 -6 4 -5 16 2 18 10 21 9 15 -1 -6 -9 -3 -11 8 -6 9
3 19 2 22 -4 4 -5 12 -6 18 -3 7 4 8 3 4 -1 -11 -13 -38 -15 -31 -3 5 7 2 8
-5 4 -22 -14 8 -28 58 -28 18 0 21 -2 10 -9 -11 -7 -9 -10 8 -15 13 -4 20 -11
16 -18 -3 -6 0 -6 8 1 7 7 18 13 23 13 6 0 4 -5 -4 -10 -12 -8 -12 -10 -1 -10
7 0 22 -10 32 -21 12 -14 25 -19 35 -15 15 6 15 4 3 -11 -8 -9 -9 -14 -4 -11
6 4 30 -7 54 -23 29 -20 50 -28 64 -24 13 4 17 3 11 -2 -13 -9 1 -26 26 -31
32 -6 70 -25 70 -34 0 -6 8 -4 17 3 14 12 16 12 8 0 -6 -11 -4 -13 8 -8 11 4
14 2 11 -7 -3 -8 4 -16 15 -19 12 -3 21 0 21 6 0 6 3 7 6 4 4 -4 1 -14 -7 -24
-12 -15 -12 -16 4 -10 9 3 17 2 17 -3 0 -6 5 -10 11 -10 5 0 7 5 4 10 -3 6 -1
10 4 10 6 0 11 -5 11 -10 0 -20 37 -52 45 -40 5 8 12 5 22 -9 15 -22 49 -30
38 -8 -4 6 1 3 9 -7 9 -11 16 -16 16 -11 0 5 6 0 14 -11 8 -10 18 -16 21 -12
4 4 14 0 22 -8 9 -8 28 -18 44 -21 15 -3 30 -11 33 -18 3 -8 15 -19 27 -25 12
-7 19 -8 16 -3 -4 5 0 10 7 10 8 0 12 -6 9 -14 -3 -8 3 -13 17 -13 11 0 19 -4
16 -9 -3 -5 1 -12 10 -15 10 -4 13 -2 9 7 -4 6 3 1 14 -12 19 -21 21 -21 22
-5 0 18 1 18 7 2 4 -10 24 -27 46 -38 22 -13 35 -16 30 -8 -4 7 9 -2 28 -20
19 -18 37 -29 41 -26 4 4 7 2 7 -4 0 -7 7 -12 16 -12 9 0 32 -14 51 -31 21
-18 43 -29 54 -26 12 3 16 0 12 -10 -4 -11 0 -14 13 -11 10 2 27 -6 37 -17 10
-11 16 -13 12 -5 -4 8 3 4 15 -10 12 -14 19 -19 15 -13 -4 9 -1 11 9 7 9 -3
13 -10 10 -15 -3 -5 0 -9 5 -9 6 0 11 6 11 13 0 8 3 8 9 -2 9 -14 171 -28 171
-15 0 4 -9 37 -20 75 -11 37 -19 71 -18 76 1 4 -19 73 -44 153 -42 132 -73
237 -98 330 -5 19 -21 80 -36 135 -14 55 -33 127 -42 160 -8 33 -18 65 -22 70
-13 16 -38 126 -39 170 -1 47 17 97 32 88 6 -4 8 0 4 11 -4 10 -3 15 3 11 14
-9 112 93 104 107 -4 6 -3 8 3 5 13 -8 36 17 25 27 -4 4 0 6 8 4 8 -1 14 2 13
9 -2 8 4 10 15 6 9 -3 14 -3 10 2 -4 4 3 18 17 30 13 13 21 26 18 29 -4 3 1 6
10 6 10 0 17 8 17 17 0 9 3 13 7 10 3 -4 16 6 27 22 19 25 146 168 183 206 7
7 9 16 5 20 -4 5 -2 5 4 2 14 -8 47 31 38 45 -4 6 -3 8 3 5 12 -8 56 36 46 46
-3 4 -1 7 6 7 14 0 23 9 166 171 55 63 129 142 165 176 85 82 78 91 -68 94
-57 2 -105 6 -108 10 -8 13 -35 -2 -27 -15 3 -6 -2 -3 -13 6 -16 14 -23 15
-32 6 -9 -9 -12 -9 -12 0 0 7 -7 12 -16 12 -9 0 -12 -5 -8 -12 6 -10 5 -10 -7
-1 -9 7 -42 15 -75 18 -32 3 -77 8 -99 10 -22 3 -85 7 -140 10 -55 3 -125 8
-155 11 -30 4 -75 8 -100 10 -25 2 -63 5 -85 8 -50 5 -221 18 -300 21 -33 2
-68 6 -77 10 -11 4 -18 3 -18 -5 0 -7 -6 -5 -16 4 -8 9 -19 14 -24 11 -14 -9
-88 25 -95 43 -4 9 -52 148 -107 307 -168 484 -154 444 -158 460 -1 6 -11 33
-22 60 -11 28 -29 77 -40 110 -11 33 -22 67 -25 75 -3 8 -7 20 -9 25 -1 6 -39
116 -84 245 -44 129 -86 251 -92 270 -6 19 -16 49 -22 65 -11 30 -12 36 -15
56 0 5 -6 7 -13 3 -7 -4 -8 -3 -4 5 6 10 -9 65 -52 181 -3 8 -6 20 -7 25 -4
31 -18 65 -27 65 -5 0 -7 4 -4 8 7 12 -25 73 -35 66 -5 -3 -6 2 -3 11 5 12 2
16 -12 13 -13 -2 -18 2 -16 15 4 21 -7 22 -36 1z m22 -9 c-4 -8 -14 -15 -23
-15 -14 1 -13 3 3 15 25 19 27 19 20 0z m-80 -114 c3 -5 -2 -15 -12 -22 -15
-12 -16 -12 -5 2 7 9 10 19 6 22 -3 4 -4 7 0 7 3 0 8 -4 11 -9z m-233 -468
c-12 -20 -14 -14 -5 12 4 9 9 14 11 11 3 -2 0 -13 -6 -23z m-291 -577 c0 -3
-4 -8 -10 -11 -5 -3 -10 -1 -10 4 0 6 5 11 10 11 6 0 10 -2 10 -4z m-120 -246
c0 -5 -2 -10 -4 -10 -3 0 -8 5 -11 10 -3 6 -1 10 4 10 6 0 11 -4 11 -10z
m-1993 -896 c-3 -3 -12 -4 -19 -1 -8 3 -5 6 6 6 11 1 17 -2 13 -5z m918 -334
c3 -6 -1 -7 -9 -4 -18 7 -21 14 -7 14 6 0 13 -4 16 -10z m790 -510 c3 -5 -1
-10 -10 -10 -9 0 -13 5 -10 10 3 6 8 10 10 10 2 0 7 -4 10 -10z m2405 -76 c0
-8 -19 -13 -24 -6 -3 5 1 9 9 9 8 0 15 -2 15 -3z m-2564 -371 c-3 -8 -6 -17
-6 -19 0 -2 -4 -4 -8 -4 -4 0 -8 11 -8 24 0 16 4 22 14 19 7 -3 11 -12 8 -20z
m2341 -768 c0 -8 -4 -12 -9 -9 -5 3 -6 10 -3 15 9 13 12 11 12 -6z m31 -20
c-3 -3 -9 2 -12 12 -6 14 -5 15 5 6 7 -7 10 -15 7 -18z"/>
<path d="M1660 1739 c0 -5 5 -7 10 -4 6 3 10 8 10 11 0 2 -4 4 -10 4 -5 0 -10
-5 -10 -11z"/>
<path d="M2770 1350 c0 -5 5 -10 11 -10 5 0 7 5 4 10 -3 6 -8 10 -11 10 -2 0
-4 -4 -4 -10z"/>
</g>
</svg>
