<?xml version="1.0" standalone="no"?>
<!DOCTYPE svg PUBLIC "-//W3C//DTD SVG 20010904//EN"
 "http://www.w3.org/TR/2001/REC-SVG-20010904/DTD/svg10.dtd">
<svg version="1.0" xmlns="http://www.w3.org/2000/svg"
 width="734.000000pt" height="734.000000pt" viewBox="0 0 734.000000 734.000000"
 preserveAspectRatio="xMidYMid meet">
<metadata>
Created by potrace 1.11, written by Peter Selinger 2001-2013
</metadata>
<g transform="translate(0.000000,734.000000) scale(0.100000,-0.100000)"
fill="#000000" stroke="none">
<path d="M1894 6778 c-3 -10 -11 -24 -18 -30 -34 -35 -64 -124 -65 -193 -3
-208 2 -415 9 -415 3 0 7 -15 9 -32 2 -18 4 -40 6 -48 5 -34 17 -96 20 -105 1
-5 4 -14 5 -20 1 -5 6 -20 11 -33 9 -22 17 -59 23 -97 2 -11 6 -29 9 -40 3
-11 8 -32 11 -46 5 -32 47 -142 87 -227 16 -35 29 -67 29 -72 0 -6 4 -10 9
-10 7 0 20 -27 25 -53 0 -4 8 -12 16 -17 8 -5 12 -10 8 -10 -5 0 0 -8 10 -19
39 -42 72 -84 72 -93 0 -5 5 -6 10 -3 6 3 10 1 10 -5 0 -31 188 -173 243 -184
6 -2 19 -6 27 -9 35 -13 88 -27 130 -33 75 -11 277 -14 309 -4 19 5 33 5 37
-1 3 -6 11 -5 21 2 12 10 17 10 25 -2 8 -11 9 -11 4 4 -3 9 -1 17 5 17 6 0 8
4 4 9 -3 6 4 8 15 6 14 -3 20 1 20 16 0 10 4 19 9 19 5 0 16 12 26 26 12 18
13 24 4 19 -8 -3 -6 0 4 8 10 9 17 17 16 19 -5 8 13 48 22 48 6 0 8 4 5 9 -3
5 6 26 20 46 14 21 26 52 28 70 2 18 5 36 8 41 5 8 16 69 23 131 2 12 6 27 10
32 3 6 0 11 -7 11 -8 0 -9 3 -3 8 14 10 15 52 1 52 -7 0 -8 3 -1 8 14 9 14 45
0 54 -6 5 -6 8 2 8 6 0 10 9 8 20 -2 11 1 20 6 20 6 0 7 5 4 10 -4 6 -12 8
-18 4 -7 -3 -4 1 6 9 16 14 16 16 2 31 -9 9 -12 16 -6 16 6 0 11 5 11 11 0 7
-9 9 -21 6 -16 -4 -18 -3 -8 9 8 10 8 14 0 14 -6 0 -11 10 -11 23 0 16 -3 18
-9 9 -6 -10 -10 -5 -14 16 -3 16 -14 32 -23 36 -17 6 -17 6 -1 -12 9 -10 17
-22 17 -26 0 -4 -11 6 -25 22 -14 17 -25 36 -25 43 0 12 -2 12 -9 1 -7 -11 -9
-10 -15 3 -3 9 -14 15 -23 14 -10 -2 -48 11 -84 29 -37 18 -70 32 -74 32 -15
0 -101 45 -141 75 -23 16 -55 39 -70 50 -29 20 -122 106 -224 205 -31 30 -81
91 -111 134 -29 43 -73 106 -97 140 -24 33 -50 77 -59 96 -10 19 -19 37 -22
40 -13 12 -33 59 -28 67 3 4 -48 8 -114 9 -106 0 -119 -1 -125 -18z"/>
<path d="M4162 6619 c-9 -4 -20 -5 -24 -2 -5 2 -8 1 -8 -4 0 -4 -17 -8 -37 -7
-21 0 -54 -3 -74 -6 -19 -4 -44 -3 -55 0 -10 4 -25 3 -31 -2 -9 -7 -13 -7 -13
1 0 7 -5 9 -10 6 -6 -4 -8 -12 -4 -18 3 -7 -1 -4 -9 6 -15 17 -33 24 -23 8 3
-5 -1 -11 -9 -14 -10 -4 -12 -1 -8 11 5 14 3 15 -8 5 -7 -7 -17 -13 -22 -13
-4 0 -5 6 -1 13 4 6 -3 3 -16 -8 -13 -11 -20 -14 -16 -7 7 12 -19 10 -64 -5
-36 -12 -72 -14 -65 -4 3 6 1 11 -4 11 -6 0 -11 -4 -11 -9 0 -9 -8 -10 -69
-11 -13 0 -30 -5 -37 -10 -8 -8 -14 -8 -19 0 -3 6 -11 7 -17 4 -7 -4 -8 -2 -4
5 4 6 12 8 18 5 7 -4 8 -2 4 5 -4 6 -13 8 -19 4 -7 -4 -16 -8 -22 -9 -5 -1
-19 -6 -29 -10 -15 -6 -18 -4 -12 7 4 8 1 6 -7 -3 -8 -10 -17 -15 -20 -11 -4
3 -7 1 -7 -5 0 -7 -3 -11 -7 -11 -19 4 -93 -15 -84 -21 8 -4 4 -13 -11 -26
-22 -19 -23 -19 -8 1 14 19 14 19 -3 6 -12 -10 -14 -17 -7 -26 8 -10 6 -17 -9
-27 -12 -8 -19 -17 -16 -20 3 -3 -1 -11 -10 -18 -11 -9 -12 -17 -4 -31 7 -14
7 -19 -3 -17 -15 4 -18 -24 -3 -34 6 -5 5 -8 -3 -8 -10 0 -10 -4 2 -15 8 -9
12 -23 9 -32 -5 -12 -3 -14 8 -8 12 8 12 6 0 -8 -8 -11 -9 -17 -2 -17 15 0 44
-59 37 -76 -3 -8 -2 -13 2 -10 4 2 14 1 22 -4 12 -7 12 -11 -1 -26 -9 -11 -9
-15 -1 -10 7 4 14 1 18 -8 3 -8 11 -13 19 -10 7 3 15 -2 18 -10 4 -11 1 -13
-11 -10 -10 3 -7 0 5 -8 12 -7 22 -17 23 -23 1 -5 6 -9 12 -7 5 1 7 -2 3 -8
-3 -6 -11 -8 -16 -5 -5 4 -9 1 -9 -4 0 -6 8 -11 18 -11 14 0 15 -2 2 -10 -12
-8 -12 -10 5 -10 17 0 17 -2 5 -10 -13 -8 -12 -10 3 -10 10 0 17 -8 17 -20 0
-11 5 -20 10 -20 6 0 10 -5 10 -11 0 -5 -5 -7 -12 -3 -7 4 -8 3 -4 -4 4 -6 14
-8 24 -5 15 6 16 5 2 -12 -14 -17 -13 -18 2 -12 21 8 38 -10 38 -42 0 -5 7
-17 16 -25 8 -9 11 -16 5 -16 -6 0 -11 -4 -11 -10 0 -5 8 -6 18 -3 15 6 15 5
4 -10 -12 -14 -11 -16 5 -12 12 2 20 -2 20 -10 0 -8 -4 -12 -9 -9 -4 3 -8 0
-8 -5 0 -6 7 -11 16 -11 13 0 14 -3 5 -14 -9 -11 -9 -16 0 -22 8 -5 9 -3 4 7
-8 12 -6 12 8 0 18 -15 23 -26 7 -16 -15 9 -12 -4 5 -22 8 -8 13 -19 9 -24
-13 -22 131 -173 168 -175 37 -2 40 -3 33 -14 -3 -5 14 -3 37 4 24 7 49 11 57
8 8 -3 11 0 8 5 -3 5 0 10 8 10 8 0 12 -3 10 -7 -2 -4 2 -7 10 -7 10 0 11 5 4
18 -7 15 -6 17 6 13 8 -4 15 -1 15 6 0 6 5 8 10 5 6 -3 10 -2 10 4 0 5 -6 12
-12 15 -7 3 -1 5 13 3 16 -2 26 1 26 9 0 7 -4 11 -8 8 -4 -2 -11 0 -14 6 -4 6
-3 10 2 9 18 -3 36 1 30 8 -4 3 1 12 11 20 9 8 11 11 3 7 -9 -5 -12 -3 -7 4 4
7 14 12 21 12 9 0 12 6 8 17 -4 10 -2 14 5 9 13 -8 26 29 16 45 -4 8 -3 9 4 5
7 -4 12 -2 12 3 0 6 5 11 11 11 5 0 7 -5 3 -12 -4 -7 -3 -8 4 -4 9 5 7 14 -4
32 -15 22 -12 29 10 25 5 -1 6 5 2 14 -3 9 -2 13 4 10 6 -3 10 -2 10 4 0 5 8
17 17 27 16 16 16 16 -7 10 -14 -3 -19 -3 -12 0 6 3 9 11 6 16 -4 6 -2 8 4 4
6 -3 13 3 17 14 4 11 11 18 16 15 5 -4 9 -2 9 4 0 5 -6 12 -12 14 -8 3 -5 6 6
6 13 1 17 6 13 22 -3 12 0 22 9 26 9 3 12 13 9 24 -4 11 -3 19 2 19 11 0 34
51 27 61 -3 5 -1 9 4 9 16 0 23 32 11 46 -10 12 -8 13 6 7 14 -5 17 -3 12 10
-3 9 -2 17 2 17 5 0 12 7 15 16 4 10 2 13 -7 9 -6 -4 -5 -1 3 7 15 13 22 31
23 56 0 6 4 12 9 12 4 0 8 5 8 11 0 5 -6 7 -12 4 -7 -4 -5 0 4 8 10 8 15 17
11 20 -3 4 -1 7 4 7 6 0 10 11 9 25 -2 14 1 22 7 18 7 -4 8 6 4 28 -4 20 -3
29 2 21 6 -11 9 -9 13 6 3 11 1 25 -6 32 -8 8 -6 9 9 4 18 -7 18 -6 6 9 -8 10
-9 17 -3 17 17 0 8 46 -21 110 -12 26 -37 56 -37 45 0 -4 -7 0 -15 7 -8 7 -20
18 -27 23 -15 11 -69 13 -96 4z m-672 -59 c0 -5 -5 -10 -11 -10 -5 0 -7 5 -4
10 3 6 8 10 11 10 2 0 4 -4 4 -10z"/>
<path d="M3536 6573 c-6 -14 -5 -15 5 -6 7 7 10 15 7 18 -3 3 -9 -2 -12 -12z"/>
<path d="M3586 6578 c3 -5 10 -6 15 -3 13 9 11 12 -6 12 -8 0 -12 -4 -9 -9z"/>
<path d="M3270 6460 c-9 -6 -10 -10 -3 -10 6 0 15 5 18 10 8 12 4 12 -15 0z"/>
<path d="M3260 6221 c0 -6 4 -13 10 -16 6 -3 7 1 4 9 -7 18 -14 21 -14 7z"/>
<path d="M3473 5850 c1 -21 10 -18 13 5 1 8 -2 15 -6 15 -5 0 -8 -9 -7 -20z"/>
<path d="M3863 5453 c-7 -2 -13 -9 -13 -15 0 -7 5 -7 13 1 8 6 18 7 22 3 5 -4
5 -1 1 6 -4 6 -8 12 -9 11 -1 0 -8 -3 -14 -6z"/>
<path d="M3794 5400 c-6 -6 -45 -12 -86 -13 -42 -1 -74 -5 -71 -9 2 -5 -6 -8
-19 -8 -13 0 -29 -5 -36 -12 -9 -9 -12 -9 -12 -1 0 25 -267 -143 -269 -169 -1
-9 -16 -27 -78 -96 -24 -26 -43 -52 -43 -59 0 -6 -8 -18 -18 -25 -26 -19 -76
-139 -107 -258 -29 -109 -65 -192 -130 -301 -84 -141 -121 -193 -169 -243 -28
-29 -84 -88 -124 -132 -100 -109 -122 -131 -161 -162 -35 -28 -72 -63 -244
-227 -57 -55 -135 -129 -173 -165 -77 -73 -144 -151 -144 -169 0 -6 -4 -11
-10 -11 -5 0 -10 -6 -10 -14 0 -8 -7 -22 -16 -30 -8 -9 -13 -16 -9 -16 3 0 -3
-13 -14 -28 -11 -16 -27 -48 -37 -73 -9 -24 -21 -48 -25 -54 -13 -18 -56 -149
-74 -226 -9 -41 -19 -83 -21 -94 -3 -11 -7 -37 -8 -57 -2 -20 -7 -41 -10 -46
-3 -5 -8 -27 -11 -48 -3 -22 -8 -59 -12 -84 -8 -58 -8 -460 0 -523 3 -26 9
-52 13 -59 4 -6 3 -8 -3 -5 -11 7 2 -60 20 -103 6 -14 10 -28 9 -33 -1 -4 6
-24 16 -45 10 -20 29 -71 42 -112 13 -41 32 -87 42 -102 10 -14 18 -31 18 -38
0 -6 10 -21 22 -32 13 -11 16 -16 8 -12 -12 7 -13 5 -3 -8 7 -8 9 -19 5 -23
-4 -5 -2 -5 4 -2 7 4 18 -1 25 -10 12 -15 12 -16 -4 -10 -15 5 -14 2 4 -23 12
-16 26 -27 31 -24 4 3 8 -2 8 -11 0 -10 -5 -13 -12 -9 -7 4 -8 3 -4 -5 4 -6
11 -9 16 -6 4 3 16 -3 27 -13 10 -9 12 -13 3 -8 -8 5 -4 -2 10 -16 14 -14 28
-24 32 -21 4 2 5 -5 3 -16 -3 -15 1 -19 15 -16 12 2 17 -1 14 -10 -3 -7 0 -16
7 -21 8 -5 10 -3 4 7 -8 12 -6 12 8 0 18 -15 23 -26 7 -16 -5 3 -10 1 -10 -4
0 -6 5 -11 11 -11 6 0 9 -7 6 -15 -4 -8 -1 -17 5 -21 7 -4 8 -3 4 4 -4 7 -2
12 5 12 6 0 9 -8 6 -20 -3 -11 -1 -18 4 -14 5 3 14 -7 21 -21 8 -19 14 -22 20
-13 5 8 11 9 16 3 4 -6 20 -17 36 -25 17 -8 39 -24 51 -35 32 -30 94 -77 130
-100 115 -71 155 -99 155 -106 0 -5 8 -5 17 -2 13 5 15 2 10 -13 -7 -19 -7
-19 8 0 13 17 15 18 15 3 0 -10 8 -17 20 -17 11 0 20 -4 20 -10 0 -5 6 -7 14
-4 8 3 17 0 22 -7 5 -8 3 -10 -6 -4 -8 5 -11 4 -6 -3 4 -6 13 -9 20 -6 8 3 17
1 20 -5 4 -6 14 -7 23 -4 11 4 14 3 9 -5 -4 -7 -1 -12 9 -12 9 0 14 -4 11 -9
-3 -4 6 -7 20 -5 20 2 23 0 14 -11 -9 -11 -6 -13 16 -9 25 5 26 3 13 -12 -9
-12 -10 -15 -1 -10 6 4 18 4 25 -1 20 -12 38 -12 30 0 -5 8 -2 8 9 0 8 -7 18
-10 21 -6 4 3 9 -1 13 -10 3 -9 12 -13 21 -10 8 3 19 0 23 -7 5 -7 23 -14 42
-15 48 -3 118 -24 118 -36 0 -6 5 -7 10 -4 6 3 10 2 10 -4 0 -5 9 -8 20 -6 11
2 20 -2 20 -8 0 -7 4 -6 10 3 8 12 10 12 11 -5 0 -11 3 -14 6 -7 4 10 8 10 21
0 9 -8 13 -8 9 -1 -4 6 14 3 42 -8 37 -14 51 -15 54 -6 4 9 6 9 6 -1 1 -7 6
-10 11 -7 5 3 10 2 10 -3 0 -5 14 -6 31 -4 18 3 29 1 26 -4 -3 -5 7 -9 21 -10
29 -1 108 -10 170 -20 20 -4 51 -7 68 -8 17 0 38 -7 47 -14 12 -10 17 -10 23
-1 5 8 3 9 -6 4 -9 -6 -11 -4 -6 4 6 9 13 8 27 -5 14 -13 19 -14 19 -4 0 9 5
7 15 -6 12 -15 14 -16 9 -2 -5 16 -3 16 26 7 17 -6 29 -14 26 -17 -3 -3 0 -12
7 -20 10 -13 9 -14 -10 -3 -18 9 -22 9 -18 -2 8 -18 42 -19 49 -1 4 10 2 12
-6 8 -7 -5 -8 -3 -3 6 5 9 4 11 -3 6 -8 -5 -10 -1 -5 9 4 12 8 13 13 5 6 -9 9
-9 13 1 3 8 4 1 4 -16 -1 -20 3 -30 13 -31 19 0 40 15 40 30 0 6 -5 4 -10 -4
-8 -13 -10 -13 -10 -1 0 11 -4 9 -16 -5 -15 -19 -15 -19 -6 1 6 11 11 25 12
30 1 6 4 12 7 15 2 3 3 -2 1 -10 -2 -9 3 -13 12 -11 8 3 32 6 53 7 76 4 73 3
57 14 -8 5 -10 10 -4 10 5 0 16 -6 23 -12 11 -11 13 -10 9 2 -7 20 60 19 74
-1 8 -11 9 -10 4 4 -3 10 -2 15 4 12 5 -3 19 -1 30 5 15 8 20 8 20 -1 0 -8 4
-8 13 -1 11 9 113 28 129 24 4 -1 20 3 35 9 15 6 39 13 53 15 19 3 22 2 10 -6
-11 -7 -11 -10 -2 -10 7 0 16 8 20 18 4 9 13 17 20 18 38 3 43 5 37 13 -3 5
-1 12 4 15 5 4 13 1 17 -5 5 -8 3 -9 -6 -4 -9 5 -11 4 -6 -3 5 -9 15 -7 34 6
14 9 23 11 18 4 -4 -7 10 -1 31 14 21 14 51 28 66 31 16 3 31 12 34 19 3 8 11
14 18 14 7 0 16 6 18 13 4 9 6 9 6 0 1 -8 9 -5 22 8 11 11 27 18 34 15 7 -2
19 2 25 10 15 17 34 19 25 2 -4 -7 2 -3 13 10 14 15 22 18 25 10 3 -7 6 -2 6
12 1 19 3 22 11 10 7 -12 12 -11 28 8 11 12 25 22 31 22 21 0 61 32 54 44 -4
7 -1 6 9 -1 12 -11 18 -9 34 9 13 16 14 19 2 10 -12 -10 -18 -10 -24 -1 -4 7
-3 9 4 5 6 -3 13 -2 17 4 3 5 15 10 25 10 10 0 22 4 25 10 3 6 -1 7 -12 4 -17
-5 -17 -5 0 6 9 6 22 8 27 5 6 -4 7 1 3 11 -4 12 -3 15 5 10 7 -4 12 -2 12 4
0 7 6 10 14 7 9 -4 12 2 11 17 -2 14 3 23 11 23 7 0 10 -5 7 -10 -4 -6 -1 -7
6 -3 7 5 10 15 7 23 -3 8 -2 12 3 9 5 -3 12 1 15 10 3 9 12 14 19 11 8 -3 14
3 14 14 1 12 -3 17 -9 13 -7 -4 -8 -2 -4 5 6 9 11 9 22 0 12 -10 13 -9 8 6 -6
14 -4 16 6 10 10 -6 12 -4 7 8 -3 10 -2 17 3 17 5 0 6 8 3 18 -6 15 -5 15 10
3 16 -13 17 -12 7 14 -9 25 -9 26 5 15 13 -11 15 -9 16 11 1 13 1 28 0 33 -1
5 6 3 15 -5 12 -9 15 -9 10 -1 -4 6 -4 18 1 25 11 18 12 37 2 37 -5 0 -9 5 -9
11 0 5 5 7 10 4 6 -3 10 -2 10 4 0 5 -4 13 -10 16 -5 3 -10 11 -10 16 0 6 7 3
16 -5 19 -19 28 -21 17 -4 -14 24 -12 40 5 33 13 -5 14 -4 5 6 -10 10 -9 15 5
26 9 8 11 11 3 8 -9 -5 -8 0 4 18 17 26 7 45 -17 31 -7 -4 -8 -3 -4 4 4 7 13
12 21 12 8 0 11 7 8 20 -3 12 0 20 8 20 7 0 9 3 6 7 -4 3 1 12 11 20 15 13 15
13 -8 8 -18 -5 -21 -4 -11 3 14 10 23 62 11 62 -3 0 -6 9 -6 19 0 11 4 17 8
15 5 -3 8 7 8 23 -1 15 1 43 3 61 2 17 -1 32 -6 32 -6 0 -5 5 1 13 5 6 6 21 2
32 -4 11 -3 28 2 38 5 9 6 23 2 29 -4 6 -8 84 -9 172 -1 89 -5 167 -9 174 -4
7 -2 12 5 12 10 0 10 3 1 12 -16 16 -15 31 1 22 6 -4 4 1 -5 12 -12 14 -14 24
-7 37 6 9 6 17 2 17 -4 0 -9 39 -9 86 -1 61 -6 89 -15 95 -11 7 -11 9 1 9 12
0 13 2 1 9 -11 7 -11 9 0 14 10 4 10 6 2 6 -7 1 -13 13 -13 27 0 16 4 23 12
18 7 -4 8 -3 4 4 -4 6 -14 8 -22 5 -14 -5 -15 -3 -5 15 13 25 14 35 2 28 -5
-3 -11 3 -14 15 -5 17 -3 18 10 7 15 -12 15 -11 3 9 -8 12 -18 19 -23 16 -4
-3 -7 1 -6 8 2 8 -3 39 -11 69 -8 30 -13 58 -12 63 1 4 -2 7 -8 7 -5 0 -10 7
-10 15 0 8 -8 29 -18 47 -11 18 -24 51 -31 73 -19 58 -35 95 -42 95 -4 0 -9
10 -13 23 -3 12 -15 32 -26 45 -11 12 -18 22 -16 22 6 0 -34 81 -43 90 -4 3
-17 29 -31 57 -14 29 -29 53 -33 53 -5 0 -6 4 -3 8 4 7 -36 77 -53 92 -10 8
-71 155 -78 185 -12 57 -15 75 -17 107 -1 21 -5 40 -9 44 -4 4 -2 13 3 20 8 8
6 17 -5 28 -9 9 -12 16 -6 16 15 0 3 351 -13 367 -3 3 -1 15 4 28 6 17 5 27
-6 36 -10 8 -11 15 -4 24 5 6 8 14 5 16 -2 3 -7 22 -10 42 -3 20 -7 53 -10 73
-3 20 -8 41 -12 47 -3 5 -8 24 -9 41 -6 54 -14 98 -19 106 -2 3 -5 23 -7 43
-1 21 -5 37 -9 37 -4 0 -8 8 -7 18 0 22 -7 49 -23 87 -7 17 -12 33 -11 38 1 4
-3 7 -9 7 -6 0 -9 6 -6 14 3 7 1 18 -4 23 -6 6 -11 21 -12 34 -1 13 -16 44
-32 69 -16 25 -29 48 -30 52 0 4 -8 17 -17 28 -10 11 -18 24 -18 28 0 15 -143
162 -151 156 -5 -3 -9 0 -9 5 0 6 -7 11 -15 11 -8 0 -15 4 -15 9 0 8 -59 41
-70 39 -3 -1 -24 9 -47 21 -24 12 -43 19 -43 15 0 -4 -6 -1 -14 5 -8 6 -18 11
-22 10 -5 -1 -11 0 -14 1 -3 1 -63 3 -135 5 -71 2 -144 6 -162 8 -17 1 -29 -1
-26 -6 7 -12 -30 -4 -39 8 -5 6 -8 5 -8 -2 0 -7 -5 -13 -11 -13 -5 0 -7 5 -4
10 8 13 2 13 -11 0z m1521 -4129 c3 -5 2 -12 -3 -15 -5 -3 -9 1 -9 9 0 17 3
19 12 6z m-3206 -115 c-3 -3 -11 5 -18 17 -13 21 -12 21 5 5 10 -10 16 -20 13
-22z m701 -416 c0 -5 -2 -10 -4 -10 -3 0 -8 5 -11 10 -3 6 -1 10 4 10 6 0 11
-4 11 -10z m1164 -198 c3 -5 -1 -9 -9 -9 -8 0 -12 4 -9 9 3 4 7 8 9 8 2 0 6
-4 9 -8z"/>
<path d="M4354 584 c-18 -14 -18 -15 4 -4 12 6 22 13 22 15 0 8 -5 6 -26 -11z"/>
<path d="M3912 514 c4 -4 3 -15 -3 -25 -7 -15 -6 -17 6 -13 8 3 13 10 10 14
-3 5 0 10 7 12 7 3 4 7 -7 12 -11 4 -16 4 -13 0z"/>
</g>
</svg>
